HIERARCHY
ROOT pelvis
{
	OFFSET 0.000000 0.000000 0.000000
	CHANNELS 6 Xposition Yposition Zposition Zrotation Yrotation Xrotation
	JOINT left_hip
	{
		OFFSET 0.055779 -0.080629 -0.017705
		CHANNELS 3 Zrotation Yrotation Xrotation
		JOINT left_knee
		{
			OFFSET 0.039469 -0.359247 0.009008
			CHANNELS 3 Zrotation Yrotation Xrotation
			JOINT left_ankle
			{
				OFFSET -0.013809 -0.389899 -0.036404
				CHANNELS 3 Zrotation Yrotation Xrotation
				JOINT left_foot
				{
					OFFSET 0.037897 -0.056346 0.116500
					CHANNELS 3 Zrotation Yrotation Xrotation
					End Site
					{
						OFFSET 0.000000 0.000000 0.000000
					}
				}
			}
		}
	}
	JOINT right_hip
	{
		OFFSET -0.057787 -0.088871 -0.013401
		CHANNELS 3 Zrotation Yrotation Xrotation
		JOINT right_knee
		{
			OFFSET -0.039496 -0.356943 -0.002206
			CHANNELS 3 Zrotation Yrotation Xrotation
			JOINT right_ankle
			{
				OFFSET 0.017959 -0.383749 -0.033094
				CHANNELS 3 Zrotation Yrotation Xrotation
				JOINT right_foot
				{
					OFFSET -0.031235 -0.058281 0.124713
					CHANNELS 3 Zrotation Yrotation Xrotation
					End Site
					{
						OFFSET 0.000000 0.000000 0.000000
					}
				}
			}
		}
	}
	JOINT spine1
	{
		OFFSET 0.004196 0.122659 -0.034271
		CHANNELS 3 Zrotation Yrotation Xrotation
		JOINT spine2
		{
			OFFSET 0.005122 0.143143 0.029537
			CHANNELS 3 Zrotation Yrotation Xrotation
			JOINT spine3
			{
				OFFSET -0.001923 0.057757 0.004628
				CHANNELS 3 Zrotation Yrotation Xrotation
				JOINT neck
				{
					OFFSET -0.013781 0.203940 -0.035143
					CHANNELS 3 Zrotation Yrotation Xrotation
					JOINT head
					{
						OFFSET 0.009065 0.086539 0.049216
						CHANNELS 3 Zrotation Yrotation Xrotation
						End Site
						{
							OFFSET 0.000000 0.000000 0.000000
						}
					}
				}
				JOINT left_collar
				{
					OFFSET 0.070315 0.109742 -0.020357
					CHANNELS 3 Zrotation Yrotation Xrotation
					JOINT left_shoulder
					{
						OFFSET 0.122280 0.043464 -0.020451
						CHANNELS 3 Zrotation Yrotation Xrotation
						JOINT left_elbow
						{
							OFFSET 0.245347 -0.013316 -0.020298
							CHANNELS 3 Zrotation Yrotation Xrotation
							JOINT left_wrist
							{
								OFFSET 0.251466 0.010925 -0.008411
								CHANNELS 3 Zrotation Yrotation Xrotation
								End Site
								{
									OFFSET 0.000000 0.000000 0.000000
								}
							}
						}
					}
				}
				JOINT right_collar
				{
					OFFSET -0.083386 0.108780 -0.024575
					CHANNELS 3 Zrotation Yrotation Xrotation
					JOINT right_shoulder
					{
						OFFSET -0.112806 0.044731 -0.008805
						CHANNELS 3 Zrotation Yrotation Xrotation
						JOINT right_elbow
						{
							OFFSET -0.248827 -0.010357 -0.028458
							CHANNELS 3 Zrotation Yrotation Xrotation
							JOINT right_wrist
							{
								OFFSET -0.255561 0.006434 -0.006231
								CHANNELS 3 Zrotation Yrotation Xrotation
								End Site
								{
									OFFSET 0.000000 0.000000 0.000000
								}
							}
						}
					}
				}
			}
		}
	}
}
MOTION
Frames: 18
Frame Time: 0.033333
-0.374082 0.876330 -1.295661 0.000000 0.000000 0.000000 -1.808997 0.171598 -6.943161 -0.014802 -0.091314 7.012909 0.487156 -0.053775 -0.074471 0.000000 0.000000 0.000000 -0.870148 -0.002611 -1.924090 -0.006174 -0.072369 -2.078622 -0.443596 0.131223 3.997931 0.000000 0.000000 0.000000 -1.744337 -0.047629 -0.003245 0.000000 0.000000 0.000000 -0.481561 -0.083394 0.001209 0.000000 0.000000 0.000000 0.000000 0.000000 0.000000 0.000000 0.000000 0.000000 0.000000 0.000000 0.000000 0.000000 0.000000 0.000000 0.000000 0.000000 0.000000 0.000000 0.000000 0.000000 0.000000 0.000000 0.000000 0.000000 0.000000 0.000000 0.000000 0.000000 0.000000
-0.377550 0.855932 -1.302758 -0.880000 0.100000 4.447000 4.931279 -4.960048 -21.296213 -0.177681 -0.522386 36.446159 1.221114 10.699741 -14.231002 0.000000 0.000000 0.000000 -5.747762 5.710838 -22.107669 0.127228 0.558462 38.370555 -2.111716 -13.122420 -11.295587 0.000000 0.000000 0.000000 -4.541519 4.084517 2.955794 0.000000 0.000000 0.000000 1.821750 1.130433 -6.620644 -4.663397 -3.209303 9.536496 8.978068 -4.686647 -15.842455 0.000000 0.000000 0.000000 -79.340723 -5.072608 37.599308 13.607416 -20.804294 -5.554969 -0.604169 -3.058391 22.344339 0.000000 0.000000 0.000000 73.301644 -5.289866 33.315439 -20.226567 28.576869 -9.524384 0.019664 0.562399 4.005073
-0.377458 0.855653 -1.302925 -0.798500 0.018600 4.395400 4.845080 -4.874026 -21.242818 -0.177526 -0.523240 36.483467 1.216645 10.701576 -14.258496 0.000000 0.000000 0.000000 -5.827406 5.647980 -22.165571 0.128411 0.560338 38.540783 -2.099332 -13.013037 -11.374147 0.000000 0.000000 0.000000 -4.565306 4.075140 3.115144 0.000000 0.000000 0.000000 1.867499 1.135337 -6.621766 -4.674205 -3.219905 9.613701 8.952781 -4.701736 -16.057287 0.000000 0.000000 0.000000 -79.385407 -5.142449 37.544837 13.615899 -20.815851 -5.555064 -0.601269 -3.051325 22.289895 0.000000 0.000000 0.000000 73.231088 -5.134170 33.184511 -20.177264 28.524806 -9.492652 0.020583 0.575379 4.097667
-0.377778 0.855394 -1.303175 -0.708700 0.012700 4.368400 4.778964 -4.822526 -21.273854 -0.179785 -0.524636 36.533880 1.214076 10.656796 -14.241682 0.000000 0.000000 0.000000 -5.899222 5.578923 -22.270199 0.129949 0.562633 38.720315 -2.097588 -12.956598 -11.451033 0.000000 0.000000 0.000000 -4.604001 4.016020 3.250440 0.000000 0.000000 0.000000 1.904866 1.119017 -6.695883 -4.702999 -3.221497 9.701999 9.121911 -4.699759 -16.099193 0.000000 0.000000 0.000000 -79.374332 -5.214572 37.638443 13.586084 -20.776254 -5.546902 -0.600195 -3.048709 22.269704 0.000000 0.000000 0.000000 73.142009 -5.259203 33.245268 -20.293550 28.647550 -9.567746 0.019627 0.561858 4.001203
-0.378158 0.855120 -1.303186 -0.610900 0.016200 4.359600 4.700494 -4.819176 -21.301356 -0.179165 -0.525707 36.582090 1.209990 10.636470 -14.254870 0.000000 0.000000 0.000000 -5.981982 5.469807 -22.370534 0.131523 0.565061 38.911149 -2.092559 -12.892575 -11.555062 0.000000 0.000000 0.000000 -4.601704 3.923930 3.370951 0.000000 0.000000 0.000000 1.947012 1.091165 -6.612134 -4.669400 -3.242903 9.483496 8.989267 -4.736143 -16.008722 0.000000 0.000000 0.000000 -79.380336 -5.437701 37.735772 13.595344 -20.788763 -5.548369 -0.596185 -3.038909 22.194167 0.000000 0.000000 0.000000 73.075218 -4.990030 33.219697 -20.198662 28.547366 -9.506386 0.020300 0.571410 4.069343
-0.379033 0.854726 -1.303290 -0.585200 -0.057600 4.333700 4.728199 -4.724349 -21.324171 -0.181856 -0.528666 36.635814 1.210865 10.629225 -14.237107 0.000000 0.000000 0.000000 -5.962087 5.468895 -22.523211 0.133271 0.567865 39.142990 -2.091850 -12.857636 -11.625407 0.000000 0.000000 0.000000 -4.529832 3.932670 3.515187 0.000000 0.000000 0.000000 1.942768 1.083648 -6.651495 -4.588704 -3.280801 9.654504 8.870061 -4.831955 -16.304352 0.000000 0.000000 0.000000 -79.332698 -5.562618 37.860549 13.610719 -20.808925 -5.553524 -0.596508 -3.039703 22.200294 0.000000 0.000000 0.000000 73.036155 -5.060062 33.266065 -20.290909 28.644793 -9.566040 0.018940 0.551959 3.930593
-0.379914 0.854127 -1.303728 -0.423500 -0.169000 4.309200 4.605485 -4.653123 -21.321590 -0.184347 -0.529346 36.698923 1.205017 10.640320 -14.266157 0.000000 0.000000 0.000000 -6.094843 5.390233 -22.735125 0.136493 0.572582 39.506459 -2.084340 -12.749892 -11.785408 0.000000 0.000000 0.000000 -4.616817 3.906260 3.674177 0.000000 0.000000 0.000000 2.010826 1.086786 -6.670035 -4.764598 -3.226904 9.662397 9.138940 -4.650511 -16.520339 0.000000 0.000000 0.000000 -79.304910 -5.676650 37.816157 13.626185 -20.844525 -5.561982 -0.590685 -3.025409 22.090207 0.000000 0.000000 0.000000 72.972853 -4.980666 33.292859 -20.297840 28.652022 -9.570467 0.020223 0.570312 4.061522
-0.381545 0.853357 -1.304866 -0.270400 -0.237100 4.315600 4.570214 -4.540121 -21.488962 -0.186399 -0.531762 36.836948 1.198277 10.558337 -14.215312 0.000000 0.000000 0.000000 -6.159697 5.349234 -23.104714 0.140066 0.578004 39.978444 -2.085795 -12.705375 -11.917844 0.000000 0.000000 0.000000 -4.713341 3.929633 3.922296 0.000000 0.000000 0.000000 2.048877 1.089607 -6.754017 -4.633901 -3.226296 9.545901 8.956064 -4.665801 -16.672356 0.000000 0.000000 0.000000 -79.207072 -5.933739 37.756972 13.625550 -20.828425 -5.560668 -0.590332 -3.024551 22.083478 0.000000 0.000000 0.000000 73.002965 -4.945373 33.131601 -20.348186 28.704992 -9.602989 0.021091 0.582404 4.147785
-0.383436 0.852534 -1.305784 -0.018900 -0.279700 4.315000 4.437573 -4.412051 -21.607234 -0.187991 -0.533644 36.939569 1.182984 10.484193 -14.185762 0.000000 0.000000 0.000000 -6.317688 5.177828 -23.482636 0.144598 0.584705 40.532751 -2.076034 -12.556455 -12.155614 0.000000 0.000000 0.000000 -4.922763 3.882771 4.158642 0.000000 0.000000 0.000000 2.108262 1.078742 -6.776627 -4.589402 -3.223297 9.535596 8.848145 -4.652746 -17.033638 0.000000 0.000000 0.000000 -79.076145 -6.170403 37.489071 13.602231 -20.797606 -5.552239 -0.595913 -3.038251 22.189045 0.000000 0.000000 0.000000 73.040749 -4.885060 32.942157 -20.379602 28.737986 -9.623247 0.021566 0.588928 4.194332
-0.385965 0.851548 -1.306859 0.315100 -0.327300 4.331100 4.258482 -4.422041 -21.735581 -0.189616 -0.533547 37.014173 1.185106 10.534837 -14.069209 0.000000 0.000000 0.000000 -6.513266 5.099922 -23.973423 0.149818 0.592649 41.213084 -2.088704 -12.570961 -12.298063 0.000000 0.000000 0.000000 -5.248214 3.839496 4.407522 0.000000 0.000000 0.000000 2.171189 1.061201 -6.801462 -4.597496 -3.200499 9.512895 8.823755 -4.587185 -17.402214 0.000000 0.000000 0.000000 -78.909007 -6.473652 37.052926 13.532264 -20.706764 -5.513754 -0.603095 -3.055770 22.324148 0.000000 0.000000 0.000000 73.114805 -4.717827 32.745156 -20.336963 28.693104 -9.595712 0.021283 0.585055 4.166698
-0.389647 0.850599 -1.307517 0.636300 -0.541700 4.270800 4.133904 -4.305736 -21.696025 -0.195693 -0.538526 37.037510 1.180883 10.615383 -13.984064 0.000000 0.000000 0.000000 -6.622080 5.272605 -24.413895 0.156377 0.601768 41.933439 -2.112546 -12.668487 -12.440121 0.000000 0.000000 0.000000 -5.641497 3.838976 4.732653 0.000000 0.000000 0.000000 2.297357 1.061001 -6.828936 -4.552804 -3.143596 9.663400 8.731758 -4.451108 -18.166796 0.000000 0.000000 0.000000 -78.708383 -6.727021 36.327104 13.424453 -20.566519 -5.454861 -0.622125 -3.101648 22.678468 0.000000 0.000000 0.000000 73.169033 -4.574350 32.705916 -20.328300 28.684072 -9.590142 0.021729 0.591149 4.210174
-0.394469 0.849626 -1.309020 0.910400 -0.527100 4.309900 4.172395 -4.345294 -21.869188 -0.197724 -0.539718 37.096822 1.175420 10.643949 -13.852679 0.000000 0.000000 0.000000 -6.588728 5.289353 -24.888940 0.162390 0.609961 42.562282 -2.141055 -12.817084 -12.615007 0.000000 0.000000 0.000000 -5.965387 3.790975 4.980355 0.000000 0.000000 0.000000 2.354163 1.043746 -6.837070 -4.525803 -3.144995 9.902404 8.743790 -4.415962 -19.021528 0.000000 0.000000 0.000000 -78.392048 -7.121617 35.727619 13.301157 -20.405562 -5.387663 -0.635080 -3.132414 22.916685 0.000000 0.000000 0.000000 73.314331 -4.509264 32.534565 -20.398560 28.757852 -9.635498 0.022921 0.607123 4.324163
-0.400417 0.848696 -1.312025 1.040400 -0.117100 4.515400 4.505336 -4.729051 -22.425975 -0.193074 -0.538451 37.182419 1.171032 10.633115 -13.529517 0.000000 0.000000 0.000000 -6.292444 5.005194 -25.575619 0.163557 0.613438 43.106374 -2.195500 -13.168367 -12.394899 0.000000 0.000000 0.000000 -6.036858 3.521763 5.196310 0.000000 0.000000 0.000000 2.369790 0.968448 -6.889569 -4.515599 -3.213098 9.912900 8.592476 -4.549389 -19.489777 0.000000 0.000000 0.000000 -78.147833 -7.698553 34.836640 13.128501 -20.179368 -5.293972 -0.664594 -3.201227 23.450978 0.000000 0.000000 0.000000 73.408317 -4.410929 32.360068 -20.524271 28.889532 -9.717016 0.021214 0.584111 4.159967
-0.407276 0.847767 -1.314478 1.119300 0.226100 4.596100 4.920043 -5.065109 -22.810166 -0.196061 -0.537731 37.276921 1.170458 10.667883 -13.239269 0.000000 0.000000 0.000000 -5.896502 4.834005 -26.057410 0.166423 0.618057 43.619977 -2.229789 -13.368493 -12.424932 0.000000 0.000000 0.000000 -6.047386 3.321233 5.449851 0.000000 0.000000 0.000000 2.392764 0.910105 -6.846388 -4.611995 -3.210199 10.202080 8.794359 -4.457438 -20.438970 0.000000 0.000000 0.000000 -77.902803 -8.316887 33.837610 12.894329 -19.870484 -5.167786 -0.703758 -3.289893 24.142716 0.000000 0.000000 0.000000 73.415865 -4.357245 32.257255 -20.592031 28.960174 -9.760941 0.021644 0.589996 4.201953
-0.415172 0.846955 -1.317129 1.131300 0.571900 4.675200 5.466825 -5.350629 -23.242479 -0.194856 -0.537319 37.420228 1.175797 10.736926 -12.913479 0.000000 0.000000 0.000000 -5.368747 4.624881 -26.491040 0.167463 0.620805 44.027451 -2.248299 -13.455761 -12.465553 0.000000 0.000000 0.000000 -5.942757 3.084785 5.829546 0.000000 0.000000 0.000000 2.387153 0.842422 -6.877647 -4.571504 -3.229501 10.275696 8.690209 -4.473367 -21.209317 0.000000 0.000000 0.000000 -77.662131 -9.010307 32.427557 12.822381 -19.775294 -5.129174 -0.676583 -3.228679 23.664750 0.000000 0.000000 0.000000 73.348225 -4.218639 32.154634 -20.654361 29.025085 -9.801514 0.020753 0.577739 4.114510
-0.423962 0.846119 -1.320239 1.098300 0.914400 4.744300 6.107348 -5.718701 -23.736632 -0.193358 -0.537265 37.597640 1.189193 10.891554 -12.496544 0.000000 0.000000 0.000000 -4.732476 4.507037 -26.934987 0.167288 0.622267 44.384707 -2.265552 -13.549456 -12.449928 0.000000 0.000000 0.000000 -5.774843 2.976583 6.259098 0.000000 0.000000 0.000000 2.365576 0.812194 -6.926509 -4.689401 -3.270903 10.312583 8.871754 -4.468114 -21.884729 0.000000 0.000000 0.000000 -77.411315 -9.818619 31.543149 12.782311 -19.722170 -5.107737 -0.658858 -3.187993 23.348069 0.000000 0.000000 0.000000 73.204138 -3.984866 31.906701 -20.562445 28.929417 -9.741758 0.020607 0.575713 4.100047
-0.433227 0.845481 -1.323693 1.046100 1.300200 4.837600 6.774982 -5.951617 -24.325936 -0.190881 -0.536879 37.834954 1.203912 11.012009 -11.940507 0.000000 0.000000 0.000000 -4.035080 4.368983 -27.382103 0.165568 0.622008 44.651435 -2.286271 -13.686701 -12.322466 0.000000 0.000000 0.000000 -5.566400 2.784029 6.624113 0.000000 0.000000 0.000000 2.378005 0.761142 -6.902222 -4.734804 -3.311704 10.359691 8.886387 -4.504416 -22.512128 0.000000 0.000000 0.000000 -77.230050 -10.670895 30.587937 12.855430 -19.819048 -5.146912 -0.634156 -3.130232 22.899805 0.000000 0.000000 0.000000 72.895523 -3.566009 31.700792 -20.326581 28.682266 -9.589014 0.020413 0.572992 4.080634
-0.443244 0.845173 -1.327482 0.771200 1.673500 4.906400 7.661103 -6.069600 -25.126948 -0.185390 -0.537704 38.390699 1.247751 11.336339 -10.953362 0.000000 0.000000 0.000000 -3.047953 4.497386 -27.720664 0.162794 0.619793 44.715419 -2.314933 -13.949575 -12.077517 0.000000 0.000000 0.000000 -5.043430 2.692361 6.965497 0.000000 0.000000 0.000000 2.346412 0.746264 -6.985665 -4.843302 -3.347198 10.681435 8.989919 -4.529608 -23.144373 0.000000 0.000000 0.000000 -77.092273 -11.526878 30.019489 13.003374 -20.014614 -5.226386 -0.591115 -3.026468 22.098343 0.000000 0.000000 0.000000 72.481227 -3.312923 31.404039 -20.095552 28.438353 -9.440047 0.021303 0.585332 4.168678
